<svg width="21" height="20" viewBox="0 0 21 20" fill="none" xmlns="http://www.w3.org/2000/svg">
<path fill-rule="evenodd" clip-rule="evenodd" d="M15.0758 0.750244H6.30327C3.2462 0.750244 1.32959 2.88924 1.32959 5.91624V14.0842C1.32959 17.1112 3.2371 19.2502 6.30327 19.2502H15.0748C18.142 19.2502 20.0505 17.1112 20.0505 14.0842V5.91624C20.0505 2.88924 18.142 0.750244 15.0758 0.750244Z" stroke="#7A7C8B" stroke-width="1.5" stroke-linecap="round" stroke-linejoin="round"/>
<path fill-rule="evenodd" clip-rule="evenodd" d="M9.36635 10.0002C9.36635 11.0222 8.52746 11.8522 7.49224 11.8522C6.45804 11.8522 5.61914 11.0222 5.61914 10.0002C5.61914 8.97819 6.45804 8.14819 7.49224 8.14819C8.52746 8.14819 9.36635 8.97819 9.36635 10.0002Z" stroke="#7A7C8B" stroke-width="1.5" stroke-linecap="round" stroke-linejoin="round"/>
<path d="M9.36621 10.0002H15.7596V11.8522" stroke="#7A7C8B" stroke-width="1.5" stroke-linecap="round" stroke-linejoin="round"/>
<path d="M12.8971 11.8518V9.99976" stroke="#7A7C8B" stroke-width="1.5" stroke-linecap="round" stroke-linejoin="round"/>
</svg>
