<svg width="18" height="22" viewBox="0 0 18 22" fill="none" xmlns="http://www.w3.org/2000/svg">
<ellipse cx="9.26379" cy="6.27803" rx="4.83508" ry="4.77803" stroke="#7A7C8B" stroke-width="1.5" stroke-linecap="round" stroke-linejoin="round"/>
<path fill-rule="evenodd" clip-rule="evenodd" d="M1.59425 17.7014C1.59296 17.3655 1.66897 17.0338 1.81656 16.7312C2.27969 15.8158 3.58572 15.3307 4.66944 15.111C5.45102 14.9462 6.2434 14.8361 7.04067 14.7815C8.51676 14.6534 10.0014 14.6534 11.4775 14.7815C12.2747 14.8367 13.067 14.9468 13.8487 15.111C14.9324 15.3307 16.2384 15.7701 16.7016 16.7312C16.9984 17.348 16.9984 18.064 16.7016 18.6808C16.2384 19.6419 14.9324 20.0813 13.8487 20.2918C13.068 20.4635 12.2754 20.5767 11.4775 20.6305C10.276 20.7311 9.06902 20.7495 7.86504 20.6854C7.58716 20.6854 7.31855 20.6854 7.04067 20.6305C6.24575 20.5773 5.45612 20.4641 4.6787 20.2918C3.58572 20.0813 2.28895 19.6419 1.81656 18.6808C1.66973 18.3747 1.59378 18.0402 1.59425 17.7014Z" stroke="#7A7C8B" stroke-width="1.5" stroke-linecap="round" stroke-linejoin="round"/>
</svg>
