<svg width="21" height="20" viewBox="0 0 21 20" fill="none" xmlns="http://www.w3.org/2000/svg">
<g opacity="0.5">
<path d="M3.37694 7.84083C3.83291 6.25067 4.78058 4.84569 6.08414 3.82724C7.3877 2.80879 8.98021 2.22916 10.6334 2.17143C12.2867 2.1137 13.9157 2.58082 15.2872 3.50586C16.6586 4.4309 17.702 5.76636 18.2677 7.32083" stroke="black" stroke-linejoin="round"/>
<path d="M18.124 13.0452C17.5347 14.4418 16.5529 15.6374 15.2976 16.4871C14.0423 17.3367 12.5675 17.8039 11.0519 17.832C9.53637 17.8601 8.04523 17.4478 6.75932 16.6453C5.47341 15.8427 4.44797 14.6843 3.80737 13.3105" stroke="black" stroke-linejoin="round"/>
<path d="M7.33432 12.5202L3.62253 12.7632L2.24414 16.294" stroke="black"/>
<path d="M14.3956 7.80029L18.2503 7.79082L19.5665 4.28137" stroke="black"/>
</g>
</svg>
